<svg xmlns="http://www.w3.org/2000/svg" width="430.117" height="430.118" viewBox="0 0 430.117 430.118"><path d="M97.493 332.473c10.42 10.408 16.755 24.525 16.794 40.244-.04 15.687-6.375 29.81-16.755 40.17l-.04.02c-10.398 10.35-24.603 16.68-40.398 16.68-15.775 0-29.944-6.348-40.34-16.7C6.384 402.528 0 388.423 0 372.718c0-15.72 6.384-29.87 16.754-40.253v.01c10.4-10.36 24.57-16.736 40.34-16.736 15.796 0 29.987 6.393 40.4 16.735zm0-.01v.01h.02l-.02-.01zm-80.74 80.443v-.02h-.018l.02.02zM.047 146.26v82.128c53.618.033 104.328 21.096 142.278 59.104 37.943 37.888 58.917 88.675 59.003 142.477h.028v.148h82.467c-.065-78.233-31.866-149.1-83.28-200.55-51.42-51.442-122.257-83.26-200.496-83.31zM.196 0v82.09c191.66.14 347.464 156.183 347.594 348.027h82.327c-.056-118.57-48.248-225.994-126.132-303.932C226.073 48.275 118.72.05.195 0z"/></svg>