<svg xmlns="http://www.w3.org/2000/svg" xmlns:xlink="http://www.w3.org/1999/xlink" id="Lyft_Logo" x="0" y="0" version="1.1" viewBox="0 0 1410 1124" xml:space="preserve" style="enable-background:new 0 0 1410 1124"><style type="text/css">.st0{fill:#ff00bf}</style><switch><g><path d="M416,618V298H296v300c0,82.44,54.43,119.99,105,119.99H401c15.07,0,30.17-3.45,43.71-9.77 c2-0.93,5.2-2.93,5.2-2.93s-3.04-3.2-4.28-4.61C426.43,678.84,416,650.42,416,618z" class="st0"/><path d="M1116,538V418h-42.82c-17.89-94.32-117.02-156.26-216.64-119.03C801.06,319.71,756,386.03,756,445.26v272.62 c0,0,4.95,0.01,5,0.01c0.07,0,0.14,0,0.21,0c30.9-1.33,59.78-14.4,81.3-36.81C864.11,658.6,876,629.09,876,598h50V478h-50v-32.98 c0-12.82,6.77-24.81,17.98-31.04C924.71,396.92,956,418.87,956,448v110c0,43.53,16.42,83.92,46.25,113.75 c28.53,28.53,67.1,44.93,108.6,46.17c0.05,0,5.15,0,5.15,0V598.01c0,0,0-0.01-0.01-0.01c-22.43-0.06-39.99-18.13-39.99-40v-20 H1116z" class="st0"/><path d="M606,418v160c0,11.05-8.95,20-20,20s-20-8.95-20-20V418H446v200c0,55.14,44.86,100,100,100 c23.83,0,46.92-8.53,65-24c-1.87,14.76-10.02,27.05-23.58,35.54c-12.71,7.96-29.26,12.16-47.87,12.17 c-19.16,0-38.66-4.51-56.38-13.04c0,0-3.17-1.51-7.17-3.79v106.59c26.71,10.82,55.96,16.54,84.31,16.54 c44.83,0,85.74-14.02,115.18-39.47C708.54,779.97,726,738.29,726,688V418H606z" class="st0"/></g></switch></svg>